<?xml version="1.0" encoding="utf-8"?>
<svg viewBox="0 0 500 500" xmlns="http://www.w3.org/2000/svg">
  <g style="" transform="matrix(1.738488, 0, 0, 1.74711, -173.106003, -176.425644)">
    <path d="M 377.131 260.896 C 377.131 266.122 373.159 271.096 365.992 275.604 C 366.715 274.248 367.089 272.862 367.089 271.451 C 367.089 255.392 318.593 242.374 258.771 242.374 C 198.949 242.374 150.453 255.392 150.453 271.451 C 150.453 282.024 171.475 291.279 202.911 296.368 C 146.851 291.83 105.961 277.666 105.961 260.896 C 105.961 240.463 166.664 223.899 241.546 223.899 C 316.428 223.899 377.131 240.463 377.131 260.896 Z" style="fill: rgb(25, 130, 168);"/>
    <path d="M 344.146 302.585 C 344.146 320.721 302.288 335.424 250.654 335.424 C 201.225 335.424 160.755 321.951 157.389 304.888 C 169.849 313.322 196.029 319.131 226.307 319.131 C 268.651 319.131 302.978 307.771 302.978 293.757 C 302.978 282.622 281.302 273.161 251.152 269.746 C 302.557 269.84 344.146 284.506 344.146 302.585 Z" style="fill: rgb(25, 130, 168);"/>
  </g>
  <path style="paint-order: fill; fill-rule: evenodd; stroke: rgb(255, 255, 255); fill: rgb(25, 130, 168); stroke-width: 8px;" d="M 277.19 318.48 C 264.996 325.238 213.922 328.233 198.455 315.688 C 198.44 315.71 207.76 252.821 230.079 218.719 C 232.789 212.728 237.977 206.608 244.644 200.497 C 246.695 202.933 249.864 204.496 253.42 204.496 C 259.607 204.496 264.622 199.761 264.622 193.923 C 264.622 191.192 263.524 188.699 261.721 186.823 C 269.655 181.086 278.256 175.457 286.647 170.056 C 288.311 173.365 291.885 175.653 296.025 175.653 C 301.756 175.653 306.402 171.269 306.402 165.861 C 306.402 163.268 305.331 160.907 303.585 159.155 C 309.411 155.35 314.774 151.725 319.294 148.333 C 322.697 145.78 325.944 142.523 329.045 138.803 C 330.987 141.41 334.198 143.11 337.828 143.11 C 343.757 143.11 348.56 138.578 348.56 132.986 C 348.56 128.112 344.911 124.042 340.048 123.077 C 354.513 99.362 365.298 71.103 373.968 73.07 C 386.35 75.885 382.049 135.903 361.899 158.551 C 350.996 174.299 306.264 208.318 293.163 224.868 C 280.058 241.423 281.374 316.958 277.19 318.48 Z"/>
  <path style="stroke: rgb(0, 0, 0); fill: rgb(92, 185, 218);" d="M 253.491 236.344" transform="matrix(0.999748, 0.022466, -0.022466, 0.999748, 5.373791, -5.635388)"/>
</svg>