<?xml version="1.0" encoding="utf-8"?>
<svg viewBox="0 0 500 500" xmlns="http://www.w3.org/2000/svg">
  <g style="" transform="matrix(1.738488, 0, 0, 1.606027, -173.555222, -138.192459)">
    <g>
      <path d="M 377.131 260.896 C 377.131 266.122 373.159 271.096 365.992 275.604 C 366.715 274.248 367.089 272.862 367.089 271.451 C 367.089 255.392 318.593 242.374 258.771 242.374 C 198.949 242.374 150.453 255.392 150.453 271.451 C 150.453 282.024 171.475 291.279 202.911 296.368 C 146.851 291.83 105.961 277.666 105.961 260.896 C 105.961 240.463 166.664 223.899 241.546 223.899 C 316.428 223.899 377.131 240.463 377.131 260.896 Z" style="fill: rgb(92, 185, 218);"/>
      <path d="M 344.146 302.585 C 344.146 320.721 302.288 335.424 250.654 335.424 C 201.225 335.424 160.755 321.951 157.389 304.888 C 169.849 313.322 196.029 319.131 226.307 319.131 C 268.651 319.131 302.978 307.771 302.978 293.757 C 302.978 282.622 281.302 273.161 251.152 269.746 C 302.557 269.84 344.146 284.506 344.146 302.585 Z" style="fill: rgb(92, 185, 218);"/>
    </g>
    <path style="fill: rgb(92, 185, 218); paint-order: fill; fill-rule: evenodd; stroke: rgb(255, 255, 255); stroke-width: 5px;" d="M 258.535 288.381 C 251.797 291.401 225.569 292.412 213.246 286.642 C 213.237 286.656 218.598 247.498 231.436 226.264 C 232.995 222.534 235.979 218.723 239.814 214.918 C 240.994 216.435 242.817 217.408 244.862 217.408 C 248.421 217.408 251.306 214.46 251.306 210.825 C 251.306 209.124 250.674 207.572 249.637 206.404 C 254.201 202.832 259.148 199.327 263.975 195.964 C 264.932 198.024 266.988 199.449 269.369 199.449 C 272.666 199.449 275.338 196.719 275.338 193.352 C 275.338 191.737 274.722 190.267 273.718 189.176 C 277.069 186.807 280.154 184.55 282.754 182.438 C 284.711 180.848 286.579 178.82 288.363 176.504 C 289.48 178.127 291.327 179.186 293.415 179.186 C 296.825 179.186 299.588 176.364 299.588 172.882 C 299.588 169.847 297.489 167.313 294.692 166.712 C 303.012 151.946 309.216 134.35 314.203 135.575 C 321.325 137.328 318.851 174.698 307.261 188.8 C 300.989 198.606 275.259 219.788 267.723 230.093 C 260.185 240.401 260.942 287.433 258.535 288.381 Z"/>
  </g>
  <path style="stroke: rgb(0, 0, 0); fill: rgb(92, 185, 218);" d="M 253.491 236.344" transform="matrix(0.999748, 0.022466, -0.022466, 0.999748, 5.373791, -5.635388)"/>
</svg>